<svg width="60" height="13" viewBox="0 0 60 13" fill="none" xmlns="http://www.w3.org/2000/svg">
<path d="M4.512 10V9.172C4.144 9.54 3.824 9.792 3.552 9.928C3.288 10.056 3.012 10.12 2.724 10.12C2.068 10.12 1.556 9.872 1.188 9.376C0.828 8.88 0.648 8.184 0.648 7.288V6.64C0.648 5.768 0.868 5.076 1.308 4.564C1.748 4.052 2.384 3.796 3.216 3.796C3.424 3.796 3.628 3.816 3.828 3.856C4.036 3.896 4.24 3.952 4.44 4.024V1.12H5.82V10H4.512ZM2.064 7.288C2.064 7.824 2.152 8.216 2.328 8.464C2.512 8.712 2.768 8.836 3.096 8.836C3.28 8.836 3.476 8.784 3.684 8.68C3.892 8.568 4.144 8.36 4.44 8.056V5.272C4.048 5.112 3.688 5.032 3.36 5.032C2.896 5.032 2.564 5.176 2.364 5.464C2.164 5.752 2.064 6.144 2.064 6.64V7.288ZM12.3414 9.652C11.9254 9.82 11.5334 9.94 11.1654 10.012C10.7974 10.084 10.4494 10.12 10.1214 10.12C9.21744 10.12 8.53344 9.864 8.06944 9.352C7.60544 8.84 7.37344 8.16 7.37344 7.312V6.592C7.37344 6.024 7.47744 5.532 7.68544 5.116C7.89344 4.7 8.18944 4.376 8.57344 4.144C8.95744 3.912 9.40944 3.796 9.92944 3.796C10.3534 3.796 10.7494 3.884 11.1174 4.06C11.4934 4.228 11.7974 4.496 12.0294 4.864C12.2694 5.224 12.3894 5.688 12.3894 6.256C12.3894 6.424 12.3774 6.604 12.3534 6.796C12.3294 6.98 12.2894 7.176 12.2334 7.384H8.70544C8.72144 7.88 8.84544 8.252 9.07744 8.5C9.30944 8.748 9.68144 8.872 10.1934 8.872C10.4654 8.872 10.7454 8.84 11.0334 8.776C11.3294 8.712 11.6334 8.616 11.9454 8.488L12.3414 9.652ZM9.92944 4.96C9.56144 4.96 9.27344 5.08 9.06544 5.32C8.86544 5.552 8.74944 5.888 8.71744 6.328H11.0214C11.0294 6.288 11.0334 6.252 11.0334 6.22C11.0334 6.18 11.0334 6.144 11.0334 6.112C11.0334 5.728 10.9254 5.44 10.7094 5.248C10.4934 5.056 10.2334 4.96 9.92944 4.96ZM18.7567 3.916L16.5967 10H15.3367L13.1767 3.916H14.5687L15.6127 6.952L16.0087 8.212L16.3927 6.952L17.3887 3.916H18.7567ZM36.6367 10.612C36.6367 11.26 36.3807 11.764 35.8687 12.124C35.3647 12.492 34.6607 12.676 33.7567 12.676C33.3327 12.676 32.8847 12.628 32.4127 12.532C31.9407 12.436 31.5047 12.276 31.1047 12.052L31.5007 10.96C31.8847 11.152 32.2647 11.288 32.6407 11.368C33.0167 11.456 33.3847 11.5 33.7447 11.5C34.2487 11.5 34.6327 11.432 34.8967 11.296C35.1607 11.16 35.2927 10.98 35.2927 10.756C35.2927 10.412 35.0887 10.24 34.6807 10.24H33.2407C32.8487 10.24 32.5327 10.176 32.2927 10.048C32.0527 9.92 31.8767 9.756 31.7647 9.556C31.6527 9.348 31.5967 9.132 31.5967 8.908C31.5967 8.676 31.6447 8.46 31.7407 8.26C31.8447 8.052 31.9847 7.86 32.1607 7.684C31.8727 7.508 31.6407 7.272 31.4647 6.976C31.2967 6.68 31.2127 6.324 31.2127 5.908C31.2127 5.436 31.3127 5.044 31.5127 4.732C31.7127 4.42 31.9847 4.188 32.3287 4.036C32.6807 3.876 33.0687 3.796 33.4927 3.796H33.6967C33.8567 3.796 34.0127 3.808 34.1647 3.832C34.3167 3.848 34.4607 3.876 34.5967 3.916H36.7687V5.092L35.5687 4.9C35.6887 5.028 35.7807 5.188 35.8447 5.38C35.9167 5.564 35.9527 5.792 35.9527 6.064C35.9527 6.472 35.8487 6.824 35.6407 7.12C35.4407 7.408 35.1687 7.632 34.8247 7.792C34.4887 7.944 34.1127 8.02 33.6967 8.02H33.4927C33.3327 8.02 33.1807 8.008 33.0367 7.984C32.9487 8.08 32.8847 8.18 32.8447 8.284C32.8047 8.38 32.7847 8.472 32.7847 8.56C32.7847 8.84 32.9647 8.98 33.3247 8.98H34.7887C35.3407 8.98 35.7847 9.124 36.1207 9.412C36.4647 9.692 36.6367 10.092 36.6367 10.612ZM33.6967 6.892C33.9447 6.892 34.1607 6.808 34.3447 6.64C34.5367 6.472 34.6327 6.228 34.6327 5.908C34.6327 5.588 34.5367 5.344 34.3447 5.176C34.1607 5.008 33.9447 4.924 33.6967 4.924H33.4927C33.2367 4.924 33.0127 5.008 32.8207 5.176C32.6367 5.344 32.5447 5.588 32.5447 5.908C32.5447 6.228 32.6367 6.472 32.8207 6.64C33.0127 6.808 33.2367 6.892 33.4927 6.892H33.6967ZM37.9237 8.284V1.12H39.3037V8.284C39.3037 8.404 39.3317 8.52 39.3877 8.632C39.4517 8.736 39.5717 8.788 39.7477 8.788H39.9397V10.06H39.6037C39.1477 10.06 38.7997 9.972 38.5597 9.796C38.3197 9.62 38.1517 9.396 38.0557 9.124C37.9677 8.852 37.9237 8.572 37.9237 8.284ZM46.2561 6.592V7.312C46.2561 8.16 46.0241 8.84 45.5601 9.352C45.0961 9.864 44.4401 10.12 43.5921 10.12C42.7441 10.12 42.0881 9.864 41.6241 9.352C41.1601 8.84 40.9281 8.16 40.9281 7.312V6.592C40.9281 5.744 41.1561 5.068 41.6121 4.564C42.0761 4.052 42.7361 3.796 43.5921 3.796C44.4481 3.796 45.1041 4.052 45.5601 4.564C46.0241 5.068 46.2561 5.744 46.2561 6.592ZM44.8401 6.592C44.8401 6.104 44.7321 5.724 44.5161 5.452C44.3001 5.172 43.9921 5.032 43.5921 5.032C43.1921 5.032 42.8841 5.172 42.6681 5.452C42.4521 5.724 42.3441 6.104 42.3441 6.592V7.312C42.3441 7.8 42.4521 8.184 42.6681 8.464C42.8841 8.744 43.1921 8.884 43.5921 8.884C43.9921 8.884 44.3001 8.744 44.5161 8.464C44.7321 8.184 44.8401 7.8 44.8401 7.312V6.592ZM52.9275 7.276C52.9275 8.148 52.7115 8.84 52.2795 9.352C51.8475 9.864 51.2155 10.12 50.3835 10.12C49.5195 10.12 48.6435 9.88 47.7555 9.4V1.12H49.1355V4.72C49.5035 4.352 49.8195 4.108 50.0835 3.988C50.3475 3.86 50.6195 3.796 50.8995 3.796C51.5395 3.796 52.0355 4.044 52.3875 4.54C52.7475 5.036 52.9275 5.732 52.9275 6.628V7.276ZM50.5275 5.08C50.3355 5.08 50.1315 5.136 49.9155 5.248C49.7075 5.36 49.4475 5.58 49.1355 5.908V8.632C49.3515 8.72 49.5475 8.784 49.7235 8.824C49.9075 8.864 50.0875 8.884 50.2635 8.884C50.7115 8.884 51.0315 8.74 51.2235 8.452C51.4155 8.164 51.5115 7.772 51.5115 7.276V6.628C51.5115 6.092 51.4235 5.7 51.2475 5.452C51.0795 5.204 50.8395 5.08 50.5275 5.08ZM59.1383 9.652C58.7223 9.82 58.3303 9.94 57.9623 10.012C57.5943 10.084 57.2463 10.12 56.9183 10.12C56.0143 10.12 55.3303 9.864 54.8663 9.352C54.4023 8.84 54.1703 8.16 54.1703 7.312V6.592C54.1703 6.024 54.2743 5.532 54.4823 5.116C54.6903 4.7 54.9863 4.376 55.3703 4.144C55.7543 3.912 56.2063 3.796 56.7263 3.796C57.1503 3.796 57.5463 3.884 57.9143 4.06C58.2903 4.228 58.5943 4.496 58.8263 4.864C59.0663 5.224 59.1863 5.688 59.1863 6.256C59.1863 6.424 59.1743 6.604 59.1503 6.796C59.1263 6.98 59.0863 7.176 59.0303 7.384H55.5023C55.5183 7.88 55.6423 8.252 55.8743 8.5C56.1063 8.748 56.4783 8.872 56.9903 8.872C57.2623 8.872 57.5423 8.84 57.8303 8.776C58.1263 8.712 58.4303 8.616 58.7423 8.488L59.1383 9.652ZM56.7263 4.96C56.3583 4.96 56.0703 5.08 55.8623 5.32C55.6623 5.552 55.5463 5.888 55.5143 6.328H57.8183C57.8263 6.288 57.8303 6.252 57.8303 6.22C57.8303 6.18 57.8303 6.144 57.8303 6.112C57.8303 5.728 57.7223 5.44 57.5063 5.248C57.2903 5.056 57.0303 4.96 56.7263 4.96Z" fill="white"/>
<path d="M21.9569 10H20.2769V0.48H21.9569V10ZM23.4496 2.09V0.48H30.4496V2.09H27.7896V10H26.1096V2.09H23.4496Z" fill="#03FFE1"/>
</svg>
